<svg xmlns="http://www.w3.org/2000/svg" viewBox="0 0 64 64" role="img" aria-labelledby="title desc">
  <title id="title">Voyage</title>
  <desc id="desc">A clean travel route icon with an airplane and location pin</desc>
  <defs>
    <linearGradient id="background" x1="8" y1="56" x2="56" y2="8" gradientUnits="userSpaceOnUse">
      <stop stop-color="#16a66a"/>
      <stop offset="1" stop-color="#2583e8"/>
    </linearGradient>
    <linearGradient id="pin" x1="23" y1="18" x2="42" y2="45" gradientUnits="userSpaceOnUse">
      <stop stop-color="#ffffff"/>
      <stop offset="1" stop-color="#dff7ed"/>
    </linearGradient>
  </defs>
  <rect width="64" height="64" rx="18" fill="url(#background)"/>
  <path d="M13 47c8-8 15-12 23-11 6 .7 10-2.1 15-9" fill="none" stroke="#fff" stroke-width="2.5" stroke-linecap="round" stroke-dasharray="1 6" opacity=".8"/>
  <path d="M39.5 10.5c7.46 0 13.5 6.04 13.5 13.5 0 9.2-9.18 18.34-12.13 21.04a2.03 2.03 0 0 1-2.74 0C35.18 42.34 26 33.2 26 24c0-7.46 6.04-13.5 13.5-13.5Z" fill="url(#pin)"/>
  <circle cx="39.5" cy="24" r="4.5" fill="#20a879"/>
  <path d="m17 18 10.5 4.8 8.9-2.7c1.2-.36 2.32.76 1.96 1.96l-2.7 8.9L40 41.5l-3.2.05-5.22-7.85-7.85-5.22L23.8 25l8.1 4.35 2.05-5.05-5.05 2.05L21 23l-4-5Z" fill="#fff" stroke="#fff" stroke-linejoin="round"/>
</svg>
